# xmcd CD database file
#
# Track frame offsets:
#	150
#	11823
#	21404
#	33962
#	48727
#	63144
#	75507
#	89216
#	104926
#	119711
#	129377
#	139254
#	150318
#	167018
#	185147
#	199323
#	208066
#	220678
#	236855
#	252507
#
# Disc length: 3600 seconds
#
# Revision: 0
# Processed by: cddbd v1.5.2PL0 Copyright (c) Steve Scherf et al.
# Submitted via: CDex 1.51
#
DISCID=340e0e14
DTITLE=Various Artist - Pure Easy
DYEAR=2007
DGENRE=Jazz
TTITLE0=From Russia with love - Matt Monro
TTITLE1=Chicago - Tony Bennett
TTITLE2=Spanish Eyes - Al Martino
TTITLE3=Begin the beguine - Artie Shaw
TTITLE4=Crazy Rhythm - Harry James
TTITLE5=Lover man (/oh where can you be?) - Kay Starr
TTITLE6=Softly as I leave you - Lena HOrne
TTITLE7=The way you look tonight - Les Brown all Stars
TTITLE8=Little things mean a lot - Alma Cogan
TTITLE9=I wonder who´s kissing her now - Michael Holliday
TTITLE10=What kind of fool am I - Nancy Wilson
TTITLE11=Softly softly - Ruby Murray
TTITLE12=Sunshine (Soleil) - Francoise Hardy
TTITLE13=Wht is this thing called love? - Georg Shearing Trio
TTITLE14=Stranger in paradies - Manuel and the music of the mountains
TTITLE15=I say a little prayer - Ron Goodwin and his Orchestra
TTITLE16=Magic Moments - Ronnie HIlton
TTITLE17=Something - Shirley Bassey
TTITLE18=Stromy weather - Sarah Vaughan with Jimmie Jones and Orchestra
TTITLE19=I cant give you anything but love - Judy Garland
EXTD=YEAR: 2007
EXTT0=
EXTT1=
EXTT2=
EXTT3=
EXTT4=
EXTT5=
EXTT6=
EXTT7=
EXTT8=
EXTT9=
EXTT10=
EXTT11=
EXTT12=
EXTT13=
EXTT14=
EXTT15=
EXTT16=
EXTT17=
EXTT18=
EXTT19=
PLAYORDER=
